<svg width="647.0450439453125px" height="122.021240234375px" xmlns="http://www.w3.org/2000/svg" viewBox="-73.52252197265625 13.9893798828125 647.0450439453125 122.021240234375" style="background: rgba(0, 0, 0, 0);" preserveAspectRatio="xMidYMid"><defs><filter id="editing-extrusion" x="-100%" y="-100%" width="300%" height="300%"><feFlood result="color1" flood-color="#444444"></feFlood><feConvolveMatrix order="8,8" divisor="1" kernelMatrix="1 0 0 0 0 0 0 0 0 1 0 0 0 0 0 0 0 0 1 0 0 0 0 0 0 0 0 1 0 0 0 0 0 0 0 0 1 0 0 0 0 0 0 0 0 1 0 0 0 0 0 0 0 0 1 0 0 0 0 0 0 0 0 1" in="SourceAlpha" result="extrude"></feConvolveMatrix><feComposite in="color1" in2="extrude" result="comp-extrude" operator="in"></feComposite><feOffset dx="4" dy="4" in="comp-extrude" result="offset-extrude"></feOffset><feMerge><feMergeNode in="offset-extrude"></feMergeNode><feMergeNode in="SourceGraphic"></feMergeNode></feMerge></filter></defs><g filter="url(#editing-extrusion)"><g transform="translate(20.82125675678253, 97.42218780517578)"><path d="M6.53 0L-0.83 0L10.75-42.24L24.13-42.24L27.07-18.11L38.98-42.24L50.18-42.24L51.33-10.62L51.33-10.62Q51.58-4.35 54.66-2.43L54.66-2.43L54.66-2.43Q53.95-1.15 51.90 0.06L51.90 0.06L51.90 0.06Q49.86 1.28 47.14 1.28L47.14 1.28L47.14 1.28Q44.42 1.28 42.82 0.51L42.82 0.51L42.82 0.51Q41.22-0.26 40.32-1.54L40.32-1.54L40.32-1.54Q38.72-3.84 38.72-8.26L38.72-8.26L38.72-28.03L26.11 0L18.18 0L13.70-28.74L6.53 0ZM70.66 0L56.70 0L64.83-42.24L78.91-42.24L70.66 0ZM86.91 0L79.87 0L87.55-42.24L101.31-42.24L111.30-13.18L116.61-42.24L123.71-42.18L115.90 0L101.25 0L92.03-27.97L86.91 0ZM138.56 0L124.61 0L132.74-42.24L146.82-42.24L138.56 0ZM149.18-15.62L149.18-15.62L149.18-15.62Q149.18-27.71 155.46-35.33L155.46-35.33L155.46-35.33Q162.11-43.58 173.70-43.58L173.70-43.58L173.70-43.58Q182.08-43.58 186.30-39.52L186.30-39.52L186.30-39.52Q190.53-35.46 190.53-26.88L190.53-26.88L190.53-26.88Q190.53-13.82 183.87-6.21L183.87-6.21L183.87-6.21Q177.28 1.28 166.21 1.28L166.21 1.28L166.21 1.28Q157.57 1.28 153.38-3.04L153.38-3.04L153.38-3.04Q149.18-7.36 149.18-15.62ZM166.02-28.86L166.02-28.86L166.02-28.86Q163.14-17.34 163.14-8.26L163.14-8.26L163.14-8.26Q163.14-6.08 163.87-4.67L163.87-4.67L163.87-4.67Q164.61-3.26 166.56-3.26L166.56-3.26L166.56-3.26Q168.51-3.26 169.73-4.19L169.73-4.19L169.73-4.19Q170.94-5.12 171.90-7.23L171.90-7.23L171.90-7.23Q173.44-10.69 174.88-18.02L174.88-18.02L174.88-18.02Q176.32-25.34 176.45-28.38L176.45-28.38L176.45-28.38Q176.58-31.42 176.58-33.73L176.58-33.73L176.58-33.73Q176.58-36.03 175.87-37.50L175.87-37.50L175.87-37.50Q175.17-38.98 173.28-38.98L173.28-38.98L173.28-38.98Q171.39-38.98 170.11-37.82L170.11-37.82L170.11-37.82Q167.74-35.65 166.02-28.86ZM200.26 0L193.22 0L200.90-42.24L214.66-42.24L224.64-13.18L229.95-42.24L237.06-42.18L229.25 0L214.59 0L205.38-27.97L200.26 0ZM263.62-29.57L263.62-29.57L263.62-29.57Q264.58-31.49 264.58-33.28L264.58-33.28L264.58-33.28Q264.58-35.07 264.38-36.06L264.38-36.06L264.38-36.06Q264.19-37.06 263.74-37.82L263.74-37.82L263.74-37.82Q262.78-39.49 260.86-39.49L260.86-39.49L260.86-39.49Q258.50-39.49 256.58-37.76L256.58-37.76L256.58-37.76Q254.53-35.97 254.53-33.15L254.53-33.15L254.53-33.15Q254.53-31.36 255.78-29.98L255.78-29.98L255.78-29.98Q257.02-28.61 258.94-27.33L258.94-27.33L258.94-27.33Q260.86-26.05 263.04-24.77L263.04-24.77L263.04-24.77Q265.22-23.49 267.14-21.95L267.14-21.95L267.14-21.95Q271.55-18.43 271.55-13.70L271.55-13.70L271.55-13.70Q271.55-10.50 269.86-7.78L269.86-7.78L269.86-7.78Q268.16-5.06 265.34-3.07L265.34-3.07L265.34-3.07Q259.20 1.28 251.07 1.28L251.07 1.28L251.07 1.28Q244.48 1.28 241.09-0.86L241.09-0.86L241.09-0.86Q237.70-3.01 237.70-6.27L237.70-6.27L237.70-6.27Q237.70-12.10 242.24-13.57L242.24-13.57L242.24-13.57Q243.52-14.02 245.47-14.02L245.47-14.02L245.47-14.02Q247.42-14.02 249.66-13.18L249.66-13.18L249.66-13.18Q248.64-10.56 248.64-8.19L248.64-8.19L248.64-8.19Q248.64-3.07 252.29-3.07L252.29-3.07L252.29-3.07Q254.66-3.07 256.61-4.80L256.61-4.80L256.61-4.80Q258.56-6.53 258.56-8.48L258.56-8.48L258.56-8.48Q258.56-10.43 257.31-11.84L257.31-11.84L257.31-11.84Q256.06-13.25 254.21-14.37L254.21-14.37L254.21-14.37Q252.35-15.49 250.21-16.58L250.21-16.58L250.21-16.58Q248.06-17.66 246.21-19.20L246.21-19.20L246.21-19.20Q241.86-22.72 241.86-28.35L241.86-28.35L241.86-28.35Q241.86-32 243.65-34.85L243.65-34.85L243.65-34.85Q245.44-37.70 248.32-39.62L248.32-39.62L248.32-39.62Q254.08-43.52 261.15-43.52L261.15-43.52L261.15-43.52Q268.22-43.52 271.65-41.41L271.65-41.41L271.65-41.41Q275.07-39.30 275.07-35.71L275.07-35.71L275.07-35.71Q275.07-32.58 272.64-30.59L272.64-30.59L272.64-30.59Q270.53-28.93 267.97-28.93L267.97-28.93L267.97-28.93Q265.41-28.93 263.62-29.57ZM314.56-29.57L314.56-29.57L314.56-29.57Q315.52-31.49 315.52-33.28L315.52-33.28L315.52-33.28Q315.52-35.07 315.33-36.06L315.33-36.06L315.33-36.06Q315.14-37.06 314.69-37.82L314.69-37.82L314.69-37.82Q313.73-39.49 311.81-39.49L311.81-39.49L311.81-39.49Q309.44-39.49 307.52-37.76L307.52-37.76L307.52-37.76Q305.47-35.97 305.47-33.15L305.47-33.15L305.47-33.15Q305.47-31.36 306.72-29.98L306.72-29.98L306.72-29.98Q307.97-28.61 309.89-27.33L309.89-27.33L309.89-27.33Q311.81-26.05 313.98-24.77L313.98-24.77L313.98-24.77Q316.16-23.49 318.08-21.95L318.08-21.95L318.08-21.95Q322.50-18.43 322.50-13.70L322.50-13.70L322.50-13.70Q322.50-10.50 320.80-7.78L320.80-7.78L320.80-7.78Q319.10-5.06 316.29-3.07L316.29-3.07L316.29-3.07Q310.14 1.28 302.02 1.28L302.02 1.28L302.02 1.28Q295.42 1.28 292.03-0.86L292.03-0.86L292.03-0.86Q288.64-3.01 288.64-6.27L288.64-6.27L288.64-6.27Q288.64-12.10 293.18-13.57L293.18-13.57L293.18-13.57Q294.46-14.02 296.42-14.02L296.42-14.02L296.42-14.02Q298.37-14.02 300.61-13.18L300.61-13.18L300.61-13.18Q299.58-10.56 299.58-8.19L299.58-8.19L299.58-8.19Q299.58-3.07 303.23-3.07L303.23-3.07L303.23-3.07Q305.60-3.07 307.55-4.80L307.55-4.80L307.55-4.80Q309.50-6.53 309.50-8.48L309.50-8.48L309.50-8.48Q309.50-10.43 308.26-11.84L308.26-11.84L308.26-11.84Q307.01-13.25 305.15-14.37L305.15-14.37L305.15-14.37Q303.30-15.49 301.15-16.58L301.15-16.58L301.15-16.58Q299.01-17.66 297.15-19.20L297.15-19.20L297.15-19.20Q292.80-22.72 292.80-28.35L292.80-28.35L292.80-28.35Q292.80-32 294.59-34.85L294.59-34.85L294.59-34.85Q296.38-37.70 299.26-39.62L299.26-39.62L299.26-39.62Q305.02-43.52 312.10-43.52L312.10-43.52L312.10-43.52Q319.17-43.52 322.59-41.41L322.59-41.41L322.59-41.41Q326.02-39.30 326.02-35.71L326.02-35.71L326.02-35.71Q326.02-32.58 323.58-30.59L323.58-30.59L323.58-30.59Q321.47-28.93 318.91-28.93L318.91-28.93L318.91-28.93Q316.35-28.93 314.56-29.57ZM351.23-4.80L351.23-4.80L351.23-4.80Q351.23-9.28 353.02-18.24L353.02-18.24L343.55-18.24L340.03 0L326.66 0L334.78-42.24L348.29-42.24L344.58-23.36L354.05-23.36L357.57-42.24L371.07-42.24L371.07-42.24Q370.18-37.50 369.02-32.19L369.02-32.19L366.85-21.76L366.85-21.76Q364.42-9.60 364.42-4.29L364.42-4.29L364.42-4.29Q364.42-2.11 365.12-0.90L365.12-0.90L365.12-0.90Q361.92 1.28 358.18 1.28L358.18 1.28L358.18 1.28Q354.43 1.28 352.83-0.51L352.83-0.51L352.83-0.51Q351.23-2.30 351.23-4.80ZM373.57-15.62L373.57-15.62L373.57-15.62Q373.57-27.71 379.84-35.33L379.84-35.33L379.84-35.33Q386.50-43.58 398.08-43.58L398.08-43.58L398.08-43.58Q406.46-43.58 410.69-39.52L410.69-39.52L410.69-39.52Q414.91-35.46 414.91-26.88L414.91-26.88L414.91-26.88Q414.91-13.82 408.26-6.21L408.26-6.21L408.26-6.21Q401.66 1.28 390.59 1.28L390.59 1.28L390.59 1.28Q381.95 1.28 377.76-3.04L377.76-3.04L377.76-3.04Q373.57-7.36 373.57-15.62ZM390.40-28.86L390.40-28.86L390.40-28.86Q387.52-17.34 387.52-8.26L387.52-8.26L387.52-8.26Q387.52-6.08 388.26-4.67L388.26-4.67L388.26-4.67Q388.99-3.26 390.94-3.26L390.94-3.26L390.94-3.26Q392.90-3.26 394.11-4.19L394.11-4.19L394.11-4.19Q395.33-5.12 396.29-7.23L396.29-7.23L396.29-7.23Q397.82-10.69 399.26-18.02L399.26-18.02L399.26-18.02Q400.70-25.34 400.83-28.38L400.83-28.38L400.83-28.38Q400.96-31.42 400.96-33.73L400.96-33.73L400.96-33.73Q400.96-36.03 400.26-37.50L400.26-37.50L400.26-37.50Q399.55-38.98 397.66-38.98L397.66-38.98L397.66-38.98Q395.78-38.98 394.50-37.82L394.50-37.82L394.50-37.82Q392.13-35.65 390.40-28.86ZM443.07-42.69L443.07-42.69L443.07-42.69Q458.75-42.69 458.75-31.62L458.75-31.62L458.75-31.62Q458.75-25.54 454.85-21.89L454.85-21.89L454.85-21.89Q451.01-18.24 444.29-18.24L444.29-18.24L444.29-18.24Q441.15-18.24 438.72-20.03L438.72-20.03L438.72-20.03Q437.57-20.80 436.80-21.82L436.80-21.82L436.80-21.82Q441.47-21.82 443.94-24.67L443.94-24.67L443.94-24.67Q446.40-27.52 446.40-33.09L446.40-33.09L446.40-33.09Q446.40-38.66 440.90-38.66L440.90-38.66L439.36-38.66L439.36-38.66Q438.98-38.66 438.66-38.59L438.66-38.59L431.30 0L417.41 0L425.28-41.92L425.28-41.92Q432.13-42.56 436.10-42.62L436.10-42.62L436.10-42.62Q440.06-42.69 443.07-42.69Z" fill="#ffc517"></path></g></g><style>text {
  font-size: 64px;
  font-family: Arial Black;
  dominant-baseline: central;
  text-anchor: middle;
}</style></svg>